<svg xmlns="http://www.w3.org/2000/svg" viewBox="133.942 71.539 651.718 84.313" xmlns:bx="https://boxy-svg.com">
  <defs>
    <style bx:fonts="Darker Grotesque">@import url(https://fonts.googleapis.com/css2?family=Darker+Grotesque%3Aital%2Cwght%400%2C300..900&amp;display=swap);</style>
    <path id="path-0" style="fill: none;" d="M 177.489 119.522 C 211.852 152.773 232.303 169.284 243.174 191.028 L 247.31 196.012 C 256.429 205.131 264.199 215.803 272.205 225.801"></path>
    <path id="path-1" style="fill: none;" d="M 511.798 218.245 L 517.188 216.705 C 523.386 210.507 518.045 196.88 515.492 189.915 C 503.328 156.734 485.479 130.934 463.169 103.859"></path>
    <path id="path-2" style="fill: none;" d="M 308.113 72.689 C 249.709 120.324 218.247 151.543 194.076 183.772 C 176.41 225.241 217.974 259.203 247.058 273.744 L 268.039 277.511 L 284.927 280.582"></path>
    <path id="path-3" style="fill: none;" d="M 177.489 119.522 C 211.852 152.773 232.303 169.284 243.174 191.028 L 247.31 196.012 C 256.429 205.131 264.199 215.803 272.205 225.801"></path>
    <path id="path-4" style="fill: none;" d="M 511.798 218.245 L 517.188 216.705 C 523.386 210.507 518.045 196.88 515.492 189.915 C 503.328 156.734 485.479 130.934 463.169 103.859"></path>
    <path id="path-5" style="fill: none;" d="M 308.113 72.689 C 249.709 120.324 218.247 151.543 194.076 183.772 C 176.41 225.241 217.974 259.203 247.058 273.744 L 268.039 277.511 L 284.927 280.582"></path>
  </defs>
  <g transform="matrix(1, 0, 0, 1, -1.814006, -2.018501)">
    <g transform="matrix(1, 0, 0, 1, 2.95, -8.501)">
      <path d="M161.42 142.98Q154.49 142.98 148.96 140.01Q143.42 137.04 140.23 131.24Q137.03 125.43 137.03 116.79Q137.03 108.06 140.18 102.21Q143.33 96.36 148.96 93.44Q154.58 90.51 161.78 90.51Q167.72 90.51 172.31 92.67Q176.9 94.83 180.01 98.93Q183.11 103.02 184.19 108.96L179.96 108.96Q179.06 104.19 176.5 100.91Q173.93 97.62 170.2 95.96Q166.46 94.29 161.78 94.29Q152.24 94.29 146.71 100.05Q141.17 105.81 141.17 116.61Q141.17 127.77 146.62 133.49Q152.06 139.2 161.42 139.2Q166.55 139.2 170.51 137.49Q174.47 135.78 176.95 132.54Q179.42 129.3 180.23 124.62L184.64 124.62Q183.56 130.47 180.5 134.57Q177.44 138.66 172.63 140.82Q167.81 142.98 161.42 142.98ZM187.61 158.1L187.61 154.68L192.29 154.68Q193.55 154.68 194.36 154.23Q195.17 153.78 196.03 152.57Q196.88 151.35 197.96 149.01L202.46 139.2L188.15 105.54L192.47 105.54L204.62 134.7L217.49 105.54L221.9 105.54L201.56 149.73Q200.39 152.43 199.4 154.1Q198.41 155.76 197.42 156.66Q196.43 157.56 195.22 157.83Q194 158.1 192.47 158.1ZM245.75 142.98Q242.15 142.98 239.63 141.72Q237.11 140.46 235.45 138.66Q233.78 136.86 232.93 135.29Q232.07 133.71 231.89 133.26L231.71 133.26L230.99 142.08L227.48 142.08L227.48 91.41L231.8 91.41L231.8 115.44L231.98 115.44Q232.16 114.81 232.93 113.24Q233.69 111.66 235.27 109.86Q236.84 108.06 239.41 106.8Q241.97 105.54 245.75 105.54Q250.97 105.54 254.62 108.02Q258.26 110.49 260.2 114.77Q262.13 119.04 262.13 124.26Q262.13 129.57 260.2 133.8Q258.26 138.03 254.62 140.51Q250.97 142.98 245.75 142.98ZM245.21 139.11Q249.71 139.11 252.55 137Q255.38 134.88 256.69 131.42Q257.99 127.95 257.99 124.26Q257.99 120.48 256.55 117.11Q255.11 113.73 252.14 111.62Q249.17 109.5 244.67 109.5Q241.07 109.5 238.19 111.26Q235.31 113.01 233.6 116.3Q231.89 119.58 231.89 124.26Q231.89 128.94 233.69 132.32Q235.49 135.69 238.51 137.4Q241.52 139.11 245.21 139.11ZM284.9 142.98Q279.05 142.98 275.23 140.19Q271.4 137.4 269.51 133.04Q267.62 128.67 267.71 123.99Q267.71 119.13 269.69 114.9Q271.67 110.67 275.5 108.11Q279.32 105.54 284.81 105.54Q289.4 105.54 292.96 107.57Q296.51 109.59 298.67 113.24Q300.83 116.88 301.1 121.92Q301.19 122.37 301.19 123Q301.19 123.63 301.19 124.17L271.67 124.17Q271.67 131.1 275.14 135.24Q278.6 139.38 284.9 139.38Q289.49 139.38 292.87 136.95Q296.24 134.52 297.05 130.38L301.1 130.38Q300.47 134.07 298.22 136.91Q295.97 139.74 292.55 141.36Q289.13 142.98 284.9 142.98ZM271.94 121.47L296.96 121.47Q296.87 119.76 296.2 117.65Q295.52 115.53 294.08 113.55Q292.64 111.57 290.35 110.31Q288.05 109.05 284.81 109.05Q281.84 109.05 279.59 110.09Q277.34 111.12 275.77 112.83Q274.19 114.54 273.25 116.75Q272.3 118.95 271.94 121.47ZM309.83 142.08L309.83 105.54L313.34 105.54L313.97 116.07L313.88 123.9L313.88 142.08ZM313.88 124.44L313.61 116.52Q313.79 114.36 314.74 112.38Q315.68 110.4 317.44 108.87Q319.19 107.34 321.67 106.44Q324.14 105.54 327.47 105.54L329.45 105.54L329.45 110.13L327.47 110.13Q322.88 110.13 320.14 111.26Q317.39 112.38 316.04 114.32Q314.69 116.25 314.29 118.86Q313.88 121.47 313.88 124.44ZM353.39 142.98Q349.79 142.98 347.27 141.72Q344.75 140.46 343.13 138.66Q341.51 136.86 340.66 135.29Q339.8 133.71 339.53 133.26L339.35 133.26L339.35 156.48L335.21 156.48L335.21 105.54L338.72 105.54L339.44 115.44L339.62 115.44Q339.89 114.81 340.61 113.24Q341.33 111.66 342.91 109.86Q344.48 108.06 347.05 106.8Q349.61 105.54 353.3 105.54Q358.61 105.54 362.26 108.06Q365.9 110.58 367.84 114.81Q369.77 119.04 369.77 124.35Q369.77 129.66 367.79 133.89Q365.81 138.12 362.17 140.55Q358.52 142.98 353.39 142.98ZM352.94 139.11Q357.44 139.11 360.28 137Q363.11 134.88 364.42 131.42Q365.72 127.95 365.72 124.26Q365.72 120.48 364.28 117.11Q362.84 113.73 359.83 111.62Q356.81 109.5 352.31 109.5Q348.71 109.5 345.83 111.26Q342.95 113.01 341.29 116.3Q339.62 119.58 339.62 124.26Q339.62 128.94 341.42 132.32Q343.22 135.69 346.24 137.4Q349.25 139.11 352.94 139.11ZM389.12 142.89Q384.08 142.89 380.75 140.37Q377.42 137.85 375.8 133.58Q374.18 129.3 374.18 124.08Q374.18 118.59 375.85 114.36Q377.51 110.13 380.89 107.66Q384.26 105.18 389.12 105.18Q391.82 105.18 393.89 105.9Q395.96 106.62 397.58 107.79Q399.2 108.96 400.33 110.45Q401.45 111.93 402.08 113.64L402.17 113.64L402.17 105.54L406.4 105.54L406.4 142.08L402.98 142.08L402.26 134.52L402.08 134.52Q401.36 136.14 400.24 137.63Q399.11 139.11 397.49 140.33Q395.87 141.54 393.8 142.22Q391.73 142.89 389.12 142.89ZM390.65 139.11Q394.52 139.11 397.09 137.31Q399.65 135.51 400.91 132.14Q402.17 128.76 402.17 124.17Q402.17 119.13 400.82 115.85Q399.47 112.56 396.91 110.85Q394.34 109.14 390.65 109.14Q386.42 109.14 383.68 111.12Q380.93 113.1 379.63 116.43Q378.32 119.76 378.32 124.08Q378.32 128.49 379.67 131.91Q381.02 135.33 383.77 137.22Q386.51 139.11 390.65 139.11ZM421.07 142.08Q418.28 142.08 417.43 140.46Q416.57 138.84 416.57 136.59L416.57 108.15L420.53 108.15L420.53 138.57L429.08 138.57L429.08 142.08ZM410.54 108.87L410.54 105.54Q412.97 105.54 414.23 105.36Q415.49 105.18 416.03 104.33Q416.57 103.47 416.71 101.54Q416.84 99.6 416.84 96.09L420.53 96.09L420.53 105.54L429.08 105.54L429.08 108.87ZM437.09 142.08L437.09 91.41L441.23 91.41L441.23 115.26L441.41 115.26Q441.59 114.63 442.31 113.1Q443.03 111.57 444.56 109.82Q446.09 108.06 448.57 106.8Q451.04 105.54 454.73 105.54Q458.51 105.54 461.03 106.62Q463.55 107.7 465.13 109.59Q466.7 111.48 467.51 113.87Q468.32 116.25 468.59 118.82Q468.86 121.38 468.86 123.99L468.86 142.08L464.9 142.08L464.9 123.99Q464.9 119.49 463.91 116.21Q462.92 112.92 460.58 111.12Q458.24 109.32 454.01 109.32Q449.69 109.32 446.86 111.48Q444.02 113.64 442.63 117.15Q441.23 120.66 441.23 124.8L441.23 142.08Z"></path>
    </g>
    <g style="font-weight: 700;" transform="matrix(1, 0, 0, 1, 2.95, -8.501)">
      <path d="M509.54 142.08L500.27 142.08L500.27 91.41L509.54 91.41ZM533.57 91.41L542.75 91.41L542.75 142.08L533.57 142.08ZM539.06 119.85L504.5 119.85L504.5 112.74L539.06 112.74ZM568.67 142.98Q562.55 142.98 558.37 140.55Q554.18 138.12 552.11 133.85Q550.04 129.57 550.04 124.08Q550.04 118.5 552.11 114.23Q554.18 109.95 558.37 107.52Q562.55 105.09 568.76 105.09Q577.85 105.09 582.58 110.31Q587.3 115.53 587.3 124.08Q587.3 129.39 585.32 133.71Q583.34 138.03 579.2 140.51Q575.06 142.98 568.67 142.98ZM568.67 135.24Q572.72 135.24 574.84 133.53Q576.95 131.82 577.67 129.17Q578.39 126.51 578.39 123.81Q578.39 120.93 577.67 118.32Q576.95 115.71 574.84 113.96Q572.72 112.2 568.67 112.2Q564.71 112.2 562.6 113.96Q560.48 115.71 559.72 118.32Q558.95 120.93 558.95 123.81Q558.95 126.51 559.72 129.17Q560.48 131.82 562.6 133.53Q564.71 135.24 568.67 135.24ZM594.23 142.08L594.23 105.09L602.78 105.09L603.5 115.89L603.41 123.81L603.41 142.08ZM603.41 126.15L603.14 117.96Q603.14 116.07 603.86 113.87Q604.58 111.66 606.25 109.68Q607.91 107.7 610.61 106.4Q613.31 105.09 617.27 105.09L618.62 105.09L618.62 115.35L617.27 115.35Q613.4 115.35 610.7 115.94Q608 116.52 606.43 117.78Q604.85 119.04 604.13 121.11Q603.41 123.18 603.41 126.15ZM625.28 142.08L625.28 105.09L634.46 105.09L634.46 142.08ZM629.87 100.32Q626.9 100.32 625.87 98.79Q624.83 97.26 624.83 95.28Q624.83 93.3 625.87 91.82Q626.9 90.33 629.87 90.33Q632.93 90.33 633.88 91.82Q634.82 93.3 634.82 95.28Q634.82 97.26 633.88 98.79Q632.93 100.32 629.87 100.32ZM641.93 142.08L641.93 135.42L664.34 111.75L643.19 111.75L643.19 104.91L675.05 104.91L675.05 111.57L653.09 135.24L675.05 135.24L675.05 142.08ZM699.53 142.98Q693.41 142.98 689.23 140.55Q685.04 138.12 682.97 133.85Q680.9 129.57 680.9 124.08Q680.9 118.5 682.97 114.23Q685.04 109.95 689.23 107.52Q693.41 105.09 699.62 105.09Q708.71 105.09 713.44 110.31Q718.16 115.53 718.16 124.08Q718.16 129.39 716.18 133.71Q714.2 138.03 710.06 140.51Q705.92 142.98 699.53 142.98ZM699.53 135.24Q703.58 135.24 705.7 133.53Q707.81 131.82 708.53 129.17Q709.25 126.51 709.25 123.81Q709.25 120.93 708.53 118.32Q707.81 115.71 705.7 113.96Q703.58 112.2 699.53 112.2Q695.57 112.2 693.46 113.96Q691.34 115.71 690.58 118.32Q689.81 120.93 689.81 123.81Q689.81 126.51 690.58 129.17Q691.34 131.82 693.46 133.53Q695.57 135.24 699.53 135.24ZM724.64 142.08L724.64 105.09L732.47 105.09L734 113.1L734.18 113.1Q734.27 112.83 734.86 111.62Q735.44 110.4 736.84 108.87Q738.23 107.34 740.62 106.22Q743 105.09 746.6 105.09Q750.56 105.09 753.04 106.4Q755.51 107.7 756.95 109.82Q758.39 111.93 758.98 114.5Q759.56 117.06 759.7 119.58Q759.83 122.1 759.83 124.17L759.83 142.08L750.83 142.08L750.83 124.08Q750.83 121.11 750.25 118.68Q749.66 116.25 748 114.72Q746.33 113.19 742.82 113.19Q739.22 113.19 737.33 114.86Q735.44 116.52 734.72 119.04Q734 121.56 734 124.44L734 142.08Z"></path>
    </g>
    <g style="fill: rgb(245, 158, 11); font-size: 110px; font-weight: 700;" transform="matrix(1, 0, 0, 1, 2.95, -8.501)">
      <path d="M773.81 142.08Q769.85 142.08 768.48 140.1Q767.1 138.12 767.1 135.26Q767.1 132.62 768.48 130.64Q769.85 128.66 773.81 128.66Q777.55 128.66 778.93 130.64Q780.3 132.62 780.3 135.26Q780.3 138.12 778.93 140.1Q777.55 142.08 773.81 142.08Z"></path>
    </g>
  </g>
</svg>